<svg width="36" height="36" viewBox="0 0 36 36" fill="#111111" xmlns="http://www.w3.org/2000/svg">
<circle cx="18.1481" cy="17.8512" r="17.8512" fill="#111111"/>
<path fillRule="evenodd" clipRule="evenodd" d="M11.7409 24.4362V14.1204H16.9136V24.5442C16.9136 25.5803 17.1688 26.3253 17.6455 26.8083C18.1213 27.2904 18.7644 27.4574 19.4266 27.4574C20.0513 27.4574 20.3132 27.425 20.5286 27.3983C20.5992 27.3896 20.6648 27.3815 20.7365 27.3753L21.0226 27.3507V26.0691L20.612 26.2101C20.5775 26.222 20.4601 26.2412 20.2516 26.2551C20.0572 26.268 19.8152 26.2746 19.5577 26.2746C19.144 26.2746 18.7965 26.2466 18.5402 26.0417C18.3005 25.8501 18.0615 25.4324 18.0615 24.4362V14.1204H23.2342V24.5442C23.2342 25.5803 23.4894 26.3253 23.9662 26.8083C24.442 27.2904 25.0851 27.4574 25.7473 27.4574C26.372 27.4574 26.6338 27.425 26.8493 27.3983C26.9199 27.3896 26.9855 27.3815 27.0572 27.3753L27.3433 27.3507V26.0691L26.9327 26.2101C26.8982 26.222 26.7808 26.2412 26.5723 26.2551C26.3778 26.268 26.1359 26.2746 25.8783 26.2746C25.4646 26.2746 25.1172 26.2466 24.8609 26.0417C24.6212 25.8501 24.3822 25.4324 24.3822 24.4362V14.1204H27.4219V12.9376H24.3822V8.56396H23.2342V12.9376H18.0615V8.56396H16.9136V12.9376H11.7409V8.56396H10.5929V12.9376H8.10352V14.1204H10.5929V24.5442C10.5929 25.5803 10.8481 26.3253 11.3248 26.8083C11.8006 27.2904 12.4437 27.4574 13.106 27.4574C13.7306 27.4574 13.9925 27.425 14.2079 27.3983C14.2785 27.3896 14.3441 27.3815 14.4159 27.3753L14.7019 27.3507V26.0691L14.2913 26.2101C14.2569 26.222 14.1394 26.2412 13.931 26.2551C13.7365 26.268 13.4946 26.2746 13.237 26.2746C12.8233 26.2746 12.4758 26.2466 12.2195 26.0417C11.9798 25.8501 11.7409 25.4324 11.7409 24.4362ZM20.7892 13.7987V13.799H17.7504V13.7987H20.7892ZM17.2263 8.88537H17.2255V13.2588H17.2263V8.88537ZM14.737 13.259V13.7987H17.2263V24.5439C17.2263 26.5148 18.1959 27.1357 19.4275 27.1357C20.0319 27.1357 20.2736 27.1058 20.4873 27.0794L20.4873 27.0794C20.5606 27.0703 20.6305 27.0617 20.7106 27.0548V27.055C20.6302 27.0619 20.56 27.0706 20.4865 27.0797C20.2728 27.1061 20.0311 27.136 19.4266 27.136C18.1951 27.136 17.2255 26.515 17.2255 24.5442V13.799H14.7361V13.259H14.737ZM21.0568 13.799V13.259H21.0576V13.7987H23.547V24.5439C23.547 26.5148 24.5166 27.1357 25.7481 27.1357C26.3525 27.1357 26.5943 27.1058 26.808 27.0794H26.808L26.808 27.0794C26.8812 27.0703 26.9512 27.0617 27.0313 27.0548V27.055C26.9508 27.0619 26.8806 27.0706 26.8071 27.0797C26.5935 27.1061 26.3517 27.136 25.7473 27.136C24.5157 27.136 23.5462 26.515 23.5462 24.5442V13.799H21.0568ZM24.0711 13.799H27.1099V13.7987H24.0711V13.799ZM23.547 8.88537H23.5462V13.2588H23.547V8.88537ZM14.1658 27.0797C14.2393 27.0706 14.3095 27.0619 14.39 27.055V27.0548C14.3098 27.0617 14.2399 27.0703 14.1667 27.0794L14.1666 27.0794C13.953 27.1058 13.7112 27.1357 13.1068 27.1357C11.8752 27.1357 10.9057 26.5148 10.9057 24.5439V13.7987H8.4163V13.259H8.41547V13.799H10.9048V24.5442C10.9048 26.515 11.8744 27.136 13.106 27.136C13.7104 27.136 13.9521 27.1061 14.1658 27.0797L14.1658 27.0797ZM10.9048 13.2588H10.9057V8.88537H10.9048V13.2588ZM14.4686 13.799V13.7987H11.4297V13.799H14.4686Z" fill="white"/>
</svg>
